<?xml version="1.0" standalone="no"?>
<!DOCTYPE svg PUBLIC "-//W3C//DTD SVG 20010904//EN"
 "http://www.w3.org/TR/2001/REC-SVG-20010904/DTD/svg10.dtd">
<svg version="1.0" xmlns="http://www.w3.org/2000/svg"
 width="700.000000pt" height="700.000000pt" viewBox="0 0 700.000000 700.000000"
 preserveAspectRatio="xMidYMid meet">
<metadata>
Created by potrace 1.14, written by Peter Selinger 2001-2017
</metadata>
<g transform="translate(0.000000,700.000000) scale(0.100000,-0.100000)"
fill="#000000" stroke="none">
<path d="M1428 6985 c-264 -36 -520 -137 -735 -288 -113 -80 -310 -277 -390
-390 -154 -219 -253 -473 -288 -744 -23 -171 -23 -3955 0 -4126 47 -356 197
-672 442 -928 262 -274 599 -444 980 -494 171 -23 3955 -23 4126 0 425 56 802
266 1069 595 200 246 322 540 358 865 6 57 10 799 10 2032 0 2108 1 2050 -55
2266 -13 52 -38 130 -55 174 -214 540 -665 912 -1250 1030 -78 16 -242 17
-2100 19 -1636 2 -2033 0 -2112 -11z m2101 -686 c17 -6 36 -19 40 -28 5 -9 66
-406 135 -882 69 -475 131 -881 136 -901 6 -21 20 -43 31 -49 55 -29 47 -34
793 522 394 294 727 538 742 544 52 19 118 -47 99 -99 -6 -15 -249 -347 -541
-739 -292 -391 -534 -720 -537 -730 -4 -10 0 -33 7 -52 11 -26 23 -36 53 -44
21 -6 427 -67 902 -136 475 -69 872 -130 881 -135 43 -23 43 -111 0 -137 -10
-7 -407 -69 -882 -138 -475 -69 -880 -130 -901 -136 -30 -8 -42 -18 -53 -44
-7 -19 -11 -42 -7 -52 3 -10 245 -339 537 -730 292 -392 535 -724 541 -739 19
-52 -47 -118 -99 -99 -15 6 -347 249 -739 541 -391 292 -720 534 -730 537 -10
4 -33 0 -52 -7 -26 -11 -36 -23 -44 -53 -6 -21 -68 -427 -137 -902 -69 -475
-130 -872 -137 -882 -26 -42 -114 -42 -137 0 -5 10 -65 406 -134 882 -69 475
-131 881 -137 902 -8 30 -18 42 -45 53 -30 13 -39 13 -62 1 -15 -7 -243 -175
-507 -372 -871 -651 -945 -705 -972 -705 -32 0 -83 51 -83 84 0 24 69 119 836
1147 199 267 244 332 244 358 0 47 -16 69 -58 81 -20 6 -424 67 -897 135 -473
69 -868 128 -878 131 -11 3 -25 21 -33 40 -12 29 -12 39 0 68 8 19 22 37 33
40 10 3 405 62 878 131 473 68 877 129 897 135 42 12 58 34 58 81 0 26 -45 91
-244 358 -767 1028 -836 1123 -836 1147 0 33 51 84 84 84 25 0 129 -76 1069
-778 425 -317 432 -321 486 -293 11 6 25 28 31 49 5 20 67 425 135 900 69 474
129 870 132 878 5 13 29 28 69 44 1 0 15 -5 33 -11z"/>
</g>
</svg>
